<svg xmlns="http://www.w3.org/2000/svg" width="320" height="320" viewBox="0 0 320 320" role="img" aria-labelledby="title desc">
  <title id="title">方劑精靈</title>
  <desc id="desc">A friendly original genie illustration holding a herbal prescription scroll.</desc>
  <defs>
    <linearGradient id="bg" x1="0" y1="0" x2="1" y2="1">
      <stop offset="0" stop-color="#e0f2fe"/>
      <stop offset="0.55" stop-color="#fef3c7"/>
      <stop offset="1" stop-color="#fce7f3"/>
    </linearGradient>
    <linearGradient id="robe" x1="0" y1="0" x2="0" y2="1">
      <stop offset="0" stop-color="#38bdf8"/>
      <stop offset="1" stop-color="#2563eb"/>
    </linearGradient>
    <linearGradient id="smoke" x1="0" y1="0" x2="1" y2="1">
      <stop offset="0" stop-color="#7dd3fc" stop-opacity="0.9"/>
      <stop offset="1" stop-color="#c4b5fd" stop-opacity="0.25"/>
    </linearGradient>
    <filter id="shadow" x="-20%" y="-20%" width="140%" height="140%">
      <feDropShadow dx="0" dy="8" stdDeviation="8" flood-color="#0f172a" flood-opacity="0.18"/>
    </filter>
  </defs>
  <rect x="18" y="18" width="284" height="284" rx="42" fill="url(#bg)"/>
  <circle cx="246" cy="70" r="18" fill="#fbbf24" opacity="0.8"/>
  <circle cx="60" cy="235" r="12" fill="#93c5fd" opacity="0.7"/>
  <path d="M82 249c42-35 47-61 26-83-20-22-2-56 42-58 52-2 88 29 75 68-12 35-54 35-46 67 6 25 48 23 57 46H86c-12-11-14-23-4-40Z" fill="url(#smoke)" opacity="0.75"/>
  <g filter="url(#shadow)">
    <path d="M118 142c0-42 28-76 63-76s63 34 63 76c0 45-28 86-63 86s-63-41-63-86Z" fill="url(#robe)"/>
    <path d="M134 124c7-29 26-46 47-46 22 0 42 18 48 48-18-8-45-8-67-1-13 4-22 3-28-1Z" fill="#bae6fd" opacity="0.55"/>
    <circle cx="181" cy="119" r="42" fill="#fde68a"/>
    <path d="M144 104c13-35 61-47 84-14-14-4-28 5-39 8-18 5-30 1-45 6Z" fill="#0f766e"/>
    <path d="M146 106c12-16 27-24 46-25 14 0 25 4 35 11-16 1-25 14-45 18-13 3-24-1-36-4Z" fill="#14b8a6"/>
    <circle cx="166" cy="120" r="5" fill="#0f172a"/>
    <circle cx="198" cy="120" r="5" fill="#0f172a"/>
    <path d="M168 145c9 9 21 9 29 0" fill="none" stroke="#0f172a" stroke-width="5" stroke-linecap="round"/>
    <path d="M119 162c-25 3-40 18-45 40" fill="none" stroke="#2563eb" stroke-width="18" stroke-linecap="round"/>
    <path d="M241 161c26 5 41 20 45 42" fill="none" stroke="#2563eb" stroke-width="18" stroke-linecap="round"/>
    <rect x="70" y="194" width="84" height="48" rx="10" fill="#fff7ed" stroke="#92400e" stroke-width="4"/>
    <path d="M84 207h56M84 220h44M84 233h51" stroke="#92400e" stroke-width="4" stroke-linecap="round" opacity="0.7"/>
    <path d="M192 195c16-10 41-10 58 1v36c-17-8-42-8-58 1v-38Z" fill="#ecfeff" stroke="#0e7490" stroke-width="4"/>
    <path d="M204 207h35M204 220h30" stroke="#0e7490" stroke-width="4" stroke-linecap="round" opacity="0.75"/>
    <ellipse cx="182" cy="250" rx="83" ry="18" fill="#0369a1" opacity="0.18"/>
  </g>
  <path d="M103 61c15-12 29-11 42 2M230 245c11 5 21 4 31-3M57 118c10-10 21-12 34-4" fill="none" stroke="#0f172a" stroke-width="5" stroke-linecap="round" opacity="0.18"/>
</svg>
