<svg xmlns="http://www.w3.org/2000/svg" viewBox="0 0 220 220" role="img" aria-label="方劑精靈">
  <defs>
    <radialGradient id="orb" cx="50%" cy="45%" r="60%">
      <stop offset="0%" stop-color="#8b5cf6" stop-opacity=".95"/>
      <stop offset="58%" stop-color="#2563eb" stop-opacity=".32"/>
      <stop offset="100%" stop-color="#2563eb" stop-opacity="0"/>
    </radialGradient>
    <linearGradient id="cloak" x1="44" y1="44" x2="176" y2="190" gradientUnits="userSpaceOnUse">
      <stop offset="0%" stop-color="#0f172a"/>
      <stop offset="100%" stop-color="#312e81"/>
    </linearGradient>
    <linearGradient id="crystal" x1="76" y1="71" x2="148" y2="151" gradientUnits="userSpaceOnUse">
      <stop offset="0%" stop-color="#f8fafc"/>
      <stop offset="100%" stop-color="#38bdf8"/>
    </linearGradient>
  </defs>
  <rect width="220" height="220" rx="44" fill="#020617"/>
  <circle cx="110" cy="116" r="88" fill="url(#orb)"/>
  <path d="M62 173c18-16 25-35 26-60 2-32 16-58 31-69 18 12 31 40 33 73 1 23 10 43 27 58-35 20-82 20-117-2z" fill="url(#cloak)" stroke="#67e8f9" stroke-width="3"/>
  <path d="M78 86c10-34 26-52 42-58 14 7 28 26 36 58-26-14-53-14-78 0z" fill="#111827" stroke="#67e8f9" stroke-width="3"/>
  <path d="M89 92c10-16 23-24 35-24 12 0 24 8 33 24-23-8-46-8-68 0z" fill="#e0f2fe" opacity=".84"/>
  <path d="M83 132c8-31 19-48 37-48s31 18 38 48c-14 17-58 18-75 0z" fill="#f8fafc" stroke="#67e8f9" stroke-width="3"/>
  <path d="M99 119c10-8 31-8 42 0-7 17-35 17-42 0z" fill="#0f172a"/>
  <circle cx="103" cy="110" r="4" fill="#06b6d4"/>
  <circle cx="137" cy="110" r="4" fill="#06b6d4"/>
  <path d="M111 132c5 3 13 3 18 0" fill="none" stroke="#64748b" stroke-width="3" stroke-linecap="round"/>
  <path d="M110 78l11 23 25 3-18 17 4 25-22-12-22 12 4-25-18-17 25-3 11-23z" fill="url(#crystal)" stroke="#22d3ee" stroke-width="3"/>
  <path d="M44 139c-13 3-24 12-30 25 18-7 35-7 49 0" fill="none" stroke="#22d3ee" stroke-width="5" stroke-linecap="round" opacity=".75"/>
  <path d="M176 139c13 3 24 12 30 25-18-7-35-7-49 0" fill="none" stroke="#22d3ee" stroke-width="5" stroke-linecap="round" opacity=".75"/>
  <path d="M50 55l5 11 12 2-9 8 2 12-10-6-10 6 2-12-9-8 12-2 5-11zM178 43l4 9 10 1-7 7 2 10-9-5-9 5 2-10-7-7 10-1 4-9zM45 107l3 7 7 1-5 5 1 7-6-4-6 4 1-7-5-5 7-1 3-7z" fill="#facc15" opacity=".92"/>
  <ellipse cx="110" cy="184" rx="57" ry="11" fill="#000" opacity=".18"/>
</svg>
